# AST/ASF file generated using VICON BodyLanguage
# -----------------------------------------------
:version 1.10
:name VICON
:units
  mass 1.0
  length 0.45
  angle deg
:documentation
   .ast/.asf automatically generated from VICON data using
   VICON BodyBuilder and BodyLanguage model FoxedUp or BRILLIANT.MOD
:root
   order TX TY TZ RX RY RZ
   axis XYZ
   position 0 0 0  
   orientation 0 0 0 
:bonedata
  begin
     id 1 
     name lhipjoint
     direction 0.653368 -0.678499 0.335782 
     length 2.51848 
     axis 0 0 0  XYZ
  end
  begin
     id 2 
     name lfemur
     direction 0.34202 -0.939693 0  
     length 6.57749  
     axis 0 0 20  XYZ
    dof rx ry rz
    limits (-160.0 20.0)
           (-70.0 70.0)
           (-60.0 70.0)
  end
  begin
     id 3 
     name ltibia
     direction 0.34202 -0.939693 0   
     length 7.94618   
     axis 0 0 20   XYZ
    dof rx
    limits (-10.0 170.0)
  end
  begin
     id 4 
     name lfoot
     direction 0.0811271 -0.222895 0.971461   
     length 2.31339   
     axis -90 7.62852e-016 20   XYZ
    dof rx rz
    limits (-45.0 90.0)
           (-70.0 20.0)
  end
  begin
     id 5 
     name ltoes
     direction 1.53568e-011 -4.21885e-011 1   
     length 1.15935   
     axis -90 7.62852e-016 20   XYZ
    dof rx
    limits (-90.0 20.0)
  end
  begin
     id 6 
     name rhipjoint
     direction -0.640058 -0.688614 0.340788   
     length 2.48149  
     axis 0 0 0  XYZ 
  end
  begin
     id 7 
     name rfemur
     direction -0.34202 -0.939693 0   
     length 6.57875   
     axis 0 0 -20   XYZ
    dof rx ry rz
    limits (-160.0 20.0)
           (-70.0 70.0)
           (-70.0 60.0)
  end
  begin
     id 8 
     name rtibia
     direction -0.34202 -0.939693 0   
     length 7.977   
     axis 0 0 -20   XYZ
    dof rx
    limits (-10.0 170.0)
 end
 begin
     id 9 
     name rfoot
     direction -0.0979793 -0.269196 0.958089   
     length 2.19857  
     axis -90 -7.62852e-016 -20   XYZ
    dof rx rz
    limits (-45.0 90.0)
           (-20.0 70.0)
  end
  begin
     id 10 
     name rtoes
     direction -1.53556e-011 -4.21868e-011 1   
     length 1.09838   
     axis -90 -7.62852e-016 -20   XYZ
    dof rx
    limits (-90.0 20.0)
  end
  begin
     id 11 
     name lowerback
     direction 0.0149039 0.998517 -0.0523597   
     length 2.10809   
     axis 0 0 0   XYZ
    dof rx ry rz
    limits (-20.0 45.0)
           (-30.0 30.0)
           (-30.0 30.0)
  end
  begin
     id 12 
     name upperback
     direction -0.00882659 0.999418 -0.0329624   
     length 2.1102   
     axis 0 0 0   XYZ
    dof rx ry rz
    limits (-20.0 45.0)
           (-30.0 30.0)
           (-30.0 30.0)
  end
  begin
     id 13 
     name thorax
     direction -0.0165585 0.999826 -0.0085833   
     length 2.11039   
     axis 0 0 0   XYZ
    dof rx ry rz
    limits (-20.0 45.0)
           (-30.0 30.0)
           (-30.0 30.0)
  end
  begin
     id 14 
     name lowerneck
     direction -0.0130877 0.999911 0.00260353   
     length 1.73253   
     axis 0 0 0   XYZ
    dof rx ry rz
    limits (-20.0 45.0)
           (-30.0 30.0)
           (-30.0 30.0)
  end
  begin
     id 15 
     name upperneck
     direction -0.0348454 0.928205 -0.370435   
     length 1.66692   
     axis 0 0 0   XYZ
    dof rx ry rz
    limits (-20.0 45.0)
           (-30.0 30.0)
           (-30.0 30.0)
  end
  begin
     id 16
     name head
     direction -0.00807754 0.992494 -0.122026  
     length 1.72765  
     axis 0 0 0   XYZ
    dof rx ry rz
    limits (-20.0 45.0)
           (-30.0 30.0)
           (-30.0 30.0)
  end
  begin
     id 17 
     name lclavicle
     direction 0.987582 0.144023 0.0627671  
     length 3.49235  
     axis 0 0 0   XYZ
    dof ry rz
    limits (-20.0 10.0)
           (0.0 20.0)
  end
  begin
     id 18 
     name lhumerus
     direction 1 -4.48958e-011 -1.45183e-018   
     length 5.41917   
     axis 180 -30 -90   XYZ
    dof rx ry rz
    limits (-60.0 90.0)
           (-90.0 90.0)
           (-90.0 90.0)
  end
  begin
     id 19
     name lradius
     direction 1 -4.48999e-011 5.75106e-027   
     length 2.44373   
     axis 180 -30 -90   XYZ
    dof rx
    limits (-10.0 170.0)
  end
  begin
     id 20
     name lwrist
     direction 1 -4.48987e-011 1.53461e-026   
     length 1.22186   
     axis -1.09697e-014 90 90   XYZ
    dof ry
    limits (-180.0 0.0)
 end
  begin
     id 21 
     name lhand
     direction 1 -4.48881e-011 3.06923e-026   
     length 0.727502   
     axis -1.95843e-014 90 90   XYZ
    dof rx rz
    limits (-90.0 90.0)
           (-45.0 45.0)
  end
  begin
     id 22 
     name lfingers
     direction 1 -4.48907e-011 6.13845e-026   
     length 0.586531   
     axis -3.91686e-014 90 90   XYZ
    dof rx
    limits (0.0 90.0)
  end
  begin
     id 23
     name lthumb
     direction 0.707107 -6.3487e-011 0.707107   
     length 0.842145   
     axis -90 45 2.85299e-015   XYZ
    dof rx rz
    limits (-45.0 45.0)
           (-45.0 45.0)
  end
  begin
     id 24 
     name rclavicle
     direction -0.980998 0.169556 0.0943023   
     length 3.29272  
     axis 0 0 0   XYZ 
    dof ry rz
    limits (-10.0 20.0)
           (-20.0 0.0)
  end
  begin
     id 25 
     name rhumerus
     direction -1 -1.83355e-005 2.45537e-005  
     length 5.58976   
     axis 180 30 90   XYZ
    dof rx ry rz
    limits (-90.0 60.0)
           (-90.0 90.0)
           (-90.0 90.0)
  end
  begin
     id 26 
     name rradius
     direction -1 -4.48967e-011 5.97228e-027   
     length 2.4806   
     axis 180 30 90   XYZ
    dof rx
    limits (-10.0 170.0)
  end
  begin
     id 27 
     name rwrist
     direction -1 -4.48963e-011 1.53461e-026   
     length 1.2403   
     axis -1.09697e-014 -90 -90   XYZ
    dof ry
    limits (-180.0 0.0)
  end
  begin
     id 28
     name rhand
     direction -1 -4.48881e-011 3.06923e-026   
     length 0.816009   
     axis -1.95843e-014 -90 -90   XYZ
    dof rx rz
    limits (-90.0 90.0)
           (-45.0 45.0)
  end
  begin
     id 29
     name rfingers
     direction -1 -4.49018e-011 6.13845e-026   
     length 0.657887   
     axis -3.91686e-014 -90 -90   XYZ
    dof rx
    limits (0.0 90.0)
  end
  begin
     id 30
     name rthumb
     direction -0.707107 -6.34872e-011 0.707107   
     length 0.944599   
     axis -90 -45 -2.85299e-015   XYZ
    dof rx rz
    limits (-45.0 45.0)
           (-45.0 45.0)
  end
:hierarchy
  begin
    root lhipjoint rhipjoint lowerback
    lhipjoint lfemur
    lfemur ltibia
    ltibia lfoot
    lfoot ltoes
    rhipjoint rfemur
    rfemur rtibia
    rtibia rfoot
    rfoot rtoes
    lowerback upperback
    upperback thorax
    thorax lowerneck lclavicle rclavicle
    lowerneck upperneck
    upperneck head
    lclavicle lhumerus
    lhumerus lradius
    lradius lwrist
    lwrist lhand lthumb
    lhand lfingers
    rclavicle rhumerus
    rhumerus rradius
    rradius rwrist
    rwrist rhand rthumb
    rhand rfingers
  end

#!OML:ASF F:\VICON\USERDATA\INSTALL\rory3\rory3.ASF
:FULLY-SPECIFIED
:DEGREES
68
root -0.829261 17.9838 19.2281 -162.821 -7.28315 -177.586
lowerback -1.0572 -1.471 2.88837
upperback -4.79776 -2.13465 1.37586
thorax -4.40464 -1.25772 -0.126031
lowerneck -15.6367 1.7764 0.727742
upperneck 38.9859 -2.92858 1.80501
head 16.7729 -2.28859 -0.302663
rclavicle 2.75565e-014 -7.60351e-015
rhumerus -19.6806 -53.6006 -19.8159
rradius 12.1532
rwrist 55.9528
rhand -3.46959 9.3677
rfingers 7.12502
rthumb 22.2632 -19.3699
lclavicle 2.75565e-014 -7.60351e-015
lhumerus 29.9455 -22.8072 49.3966
lradius 20.3977
lwrist -41.9126
lhand -4.0109 19.5187
lfingers 7.12502
lthumb 21.7435 48.3175
rfemur -61.0635 10.2037 15.589
rtibia 39.7164
rfoot -27.704 -34.3587
rtoes 56.0742
lfemur -19.8644 -4.71753 -24.4921
ltibia 32.1133
lfoot -10.1105 18.4294
ltoes -15.5605
69
root -0.810649 17.8399 19.1244 -162.985 -6.7473 -178.258
lowerback -0.701612 -1.51469 2.01097
upperback -4.64211 -2.17674 1.08074
thorax -4.42133 -1.23598 0.0670469
lowerneck -15.4317 1.79333 0.777719
upperneck 38.5585 -2.87737 1.99522
head 16.497 -2.21447 -0.202796
rclavicle -4.11849e-014 1.79465e-014
rhumerus -20.6661 -55.8241 -18.3001
rradius 11.9941
rwrist 58.7625
rhand -3.36905 9.44322
rfingers 7.12502
rthumb 22.3597 -19.2828
lclavicle -4.11849e-014 1.79465e-014
lhumerus 29.0472 -22.0067 48.9734
lradius 20.4057
lwrist -41.9366
lhand -4.02389 19.4764
lfingers 7.12502
lthumb 21.731 48.2766
rfemur -61.7836 10.7698 14.1178
rtibia 39.6547
rfoot -30.0238 -33.1703
rtoes 56.7651
lfemur -18.5812 -3.91732 -25.5438
ltibia 31.7083
lfoot -11.2835 17.527
ltoes -18.6705
70
root -0.792155 17.6855 19.0194 -163.246 -6.13596 -178.896
lowerback -0.471251 -1.46278 1.07848
upperback -4.35867 -2.09725 0.815481
thorax -4.23015 -1.14971 0.310797
lowerneck -16.049 1.94634 1.27223
upperneck 38.3997 -2.6208 1.91195
head 16.5604 -1.9931 -0.272546
rclavicle 1.49834e-014 -3.97569e-016
rhumerus -21.6215 -57.256 -16.7427
rradius 11.934
rwrist 60.5119
rhand -3.34454 9.36749
rfingers 7.12502
rthumb 22.3833 -19.3557
lclavicle 1.49834e-014 -3.97569e-016
lhumerus 28.3979 -21.2455 48.4802
lradius 20.3503
lwrist -41.7799
lhand -3.99486 19.3442
lfingers 7.12502
lthumb 21.7589 48.1412
rfemur -62.4245 11.5143 12.5717
rtibia 39.5725
rfoot -32.2863 -31.8163
rtoes 57.3307
lfemur -17.1992 -3.18729 -26.5991
ltibia 31.3007
lfoot -12.4537 17.3065
ltoes -23.3389
71
root -0.777537 17.5303 18.9151 -163.486 -5.47212 -179.312
lowerback -0.342913 -1.341 0.359756
upperback -4.23703 -1.93969 0.626406
thorax -4.15806 -1.04229 0.513067
lowerneck -15.6707 1.92911 1.38519
upperneck 38.0106 -2.62699 1.98508
head 16.2638 -1.96252 -0.2492
rclavicle -2.01891e-015 4.77083e-015
rhumerus -22.3765 -57.201 -15.3605
rradius 11.9427
rwrist 60.9297
rhand -3.33647 9.26375
rfingers 7.12502
rthumb 22.391 -19.4586
lclavicle -2.01891e-015 4.77083e-015
lhumerus 27.5169 -20.859 47.9769
lradius 20.297
lwrist -41.2366
lhand -3.73674 19.612
lfingers 7.12502
lthumb 22.0067 48.3801
rfemur -63.0368 11.9577 11.5477
rtibia 39.4893
rfoot -34.1114 -30.4592
rtoes 58.2077
lfemur -15.9382 -2.73503 -27.4344
ltibia 30.8617
lfoot -14.4946 17.4682
ltoes -24.8983
72
root -0.764187 17.3811 18.8058 -163.748 -4.90822 -179.9
lowerback -0.245524 -1.36554 -0.495385
upperback -3.82067 -1.96082 0.453557
thorax -3.75828 -1.01381 0.806884
lowerneck -16.2293 1.97824 1.52785
upperneck 37.617 -2.35663 1.91682
head 16.192 -1.77399 -0.239441
rclavicle 1.71576e-014 2.08724e-015
rhumerus -23.1291 -59.1298 -13.709
rradius 11.8442
rwrist 62.8744
rhand -3.41671 8.79528
rfingers 7.12502
rthumb 22.314 -19.9363
lclavicle 1.71576e-014 2.08724e-015
lhumerus 26.8306 -19.4532 47.532
lradius 20.1796
lwrist -41.003
lhand -3.33602 20.0983
lfingers 7.12502
lthumb 22.3914 48.8205
rfemur -63.4232 11.9062 10.7624
rtibia 39.4337
rfoot -34.985 -29.6532
rtoes 58.7674
lfemur -14.6632 -2.4028 -28.4022
ltibia 30.4134
lfoot -16.7913 17.5391
ltoes -23.9994
73
root -0.748957 17.2439 18.689 -163.975 -4.6094 -180.655
lowerback 0.274665 -1.45605 -1.43386
upperback -3.83464 -2.10839 0.258801
thorax -4.04068 -1.05471 1.15201
lowerneck -16.4616 2.10615 1.66075
upperneck 37.5017 -2.07848 1.79268
head 16.1845 -1.63527 -0.261588
rclavicle 1.37907e-015 2.98177e-016
rhumerus -25.0585 -61.1393 -10.8027
rradius 11.7199
rwrist 65.454
rhand -3.58585 8.8694
rfingers 7.12502
rthumb 22.1516 -19.8815
lclavicle 1.37907e-015 2.98177e-016
lhumerus 25.5867 -18.6757 47.0843
lradius 20.0816
lwrist -40.4063
lhand -3.22269 20.6669
lfingers 7.12502
lthumb 22.5002 49.3761
rfemur -63.6994 11.7453 9.79111
rtibia 39.4525
rfoot -34.0316 -30.6116
rtoes 58.0519
lfemur -13.4221 -2.13526 -29.4373
ltibia 29.9535
lfoot -18.8838 17.9486
ltoes -24.7524
74
root -0.733619 17.1086 18.568 -164.162 -4.41828 -181.49
lowerback 0.192519 -1.5807 -2.46229
upperback -3.45703 -2.27803 0.0745143
thorax -3.56782 -1.10912 1.53105
lowerneck -16.8813 -1.87551 3.0268
upperneck 37.1979 -0.0996597 -0.255784
head 16.0681 1.56656 -0.317332
rclavicle -2.24502e-014 -8.44835e-015
rhumerus -26.747 -63.31 -8.10732
rradius 11.5764
rwrist 67.5365
rhand -3.58378 8.52295
rfingers 7.12502
rthumb 22.1536 -20.2277
lclavicle -2.24502e-014 -8.44835e-015
lhumerus 24.9263 -17.6367 46.3728
lradius 19.8511
lwrist -39.8054
lhand -3.23101 21.4218
lfingers 7.12502
lthumb 22.4922 50.1319
rfemur -63.9193 11.4922 8.771
rtibia 39.5747
rfoot -34.5323 -29.7241
rtoes 58.2587
lfemur -12.2289 -1.80148 -30.4883
ltibia 29.4862
lfoot -20.5929 18.7584
ltoes -27.5397
75
root -0.72319 16.9793 18.4417 -164.353 -4.3407 -181.98
lowerback 0.116135 -1.67214 -3.0288
upperback -3.19427 -2.39624 -0.0379419
thorax -3.23096 -1.15626 1.72623
lowerneck -17.1167 -1.6931 3.2243
upperneck 36.842 0.014796 -0.407339
head 15.9472 1.56986 -0.411634
rclavicle -1.11816e-016 0
rhumerus -30.4238 -66.4404 -3.25998
rradius 11.4035
rwrist 71.1053
rhand -3.82076 8.09248
rfingers 7.12502
rthumb 21.9261 -20.685
lclavicle -1.11816e-016 0
lhumerus 24.0423 -16.5199 45.8247
lradius 19.6606
lwrist -39.6357
lhand -3.08641 22.2115
lfingers 7.12502
lthumb 22.631 50.9047
rfemur -63.9311 10.7964 8.62532
rtibia 39.6795
rfoot -35.1945 -28.2402
rtoes 58.8251
lfemur -11.127 -1.6633 -31.1243
ltibia 29.1775
lfoot -22.2637 18.8391
ltoes -27.4103
76
root -0.718739 16.8626 18.3093 -164.565 -4.32554 -182.28
lowerback 0.108461 -1.7438 -3.28689
upperback -2.96883 -2.48349 -0.117721
thorax -2.98224 -1.19641 1.78476
lowerneck -17.5583 -1.50008 3.29246
upperneck 36.7219 0.18256 -0.441337
head 15.9989 1.61048 -0.41549
rclavicle -1.41758e-014 2.38542e-015
rhumerus -37.9142 -70.6247 5.53082
rradius 11.3399
rwrist 76.1912
rhand -3.93882 8.1431
rfingers 7.12502
rthumb 21.8127 -20.6476
lclavicle -1.41758e-014 2.38542e-015
lhumerus 23.0052 -15.3058 45.2574
lradius 19.4793
lwrist -39.7534
lhand -3.0515 22.6393
lfingers 7.12502
lthumb 22.6645 51.3284
rfemur -63.7733 9.66914 9.14613
rtibia 39.7417
rfoot -30.2978 -32.2273
rtoes 56.2471
lfemur -10.1228 -1.67726 -31.5508
ltibia 29.0373
lfoot -23.5916 18.7688
ltoes -25.8811
77
root -0.715439 16.7624 18.1745 -164.588 -4.47635 -182.014
lowerback 0.476822 -1.77788 -2.86123
upperback -3.14398 -2.53673 -0.0162709
thorax -3.38072 -1.22503 1.67071
lowerneck -18.0593 -1.46936 3.14437
upperneck 36.9963 0.25205 -0.399891
head 16.263 1.62937 -0.35343
rclavicle 2.41523e-014 1.03368e-014
rhumerus -47.3451 -73.1919 16.3376
rradius 11.3632
rwrist 80.3609
rhand -4.28032 8.26431
rfingers 7.12502
rthumb 21.4848 -20.5642
lclavicle 2.41523e-014 1.03368e-014
lhumerus 21.4969 -14.2529 44.8667
lradius 19.3232
lwrist -40.0992
lhand -3.22811 22.8476
lfingers 7.12502
lthumb 22.495 51.5574
rfemur -63.6641 8.69401 10.1808
rtibia 39.7025
rfoot -24.6717 -35.2306
rtoes 53.3519
lfemur -9.48433 -1.78906 -31.3116
ltibia 29.066
lfoot -24.7378 18.9888
ltoes -25.2633
